<mxfile host="app.diagrams.net" modified="2023-06-13T16:01:41.430Z" agent="Mozilla/5.0 (Windows NT 10.0; Win64; x64) AppleWebKit/537.36 (KHTML, like Gecko) Chrome/113.0.0.0 Safari/537.36" etag="4kbQ6qcwk7MHYqqkWnlo" version="21.3.5" type="github">
  <diagram id="6IpWRTOvNhz4fQDFHxwE" name="Page-1">
    <mxGraphModel dx="787" dy="447" grid="1" gridSize="10" guides="0" tooltips="1" connect="1" arrows="1" fold="1" page="1" pageScale="1" pageWidth="850" pageHeight="1100" math="0" shadow="0">
      <root>
        <mxCell id="0" />
        <mxCell id="1" parent="0" />
        <mxCell id="fXu-zx2hqorw0dzWZYp2-77" value="Asana(&lt;b&gt;Neostesia_Translations&lt;/b&gt;)&amp;nbsp;" style="rounded=1;whiteSpace=wrap;html=1;fillColor=#e6d0de;strokeColor=#996185;shadow=1;gradientColor=#d5739d;" parent="1" vertex="1">
          <mxGeometry x="730" y="610" width="260" height="90" as="geometry" />
        </mxCell>
        <mxCell id="fXu-zx2hqorw0dzWZYp2-78" value="&lt;b&gt;&lt;font color=&quot;#ff0080&quot;&gt;PM&lt;/font&gt; assigned tasks according to current Milestone or project needs&lt;/b&gt;" style="ellipse;whiteSpace=wrap;html=1;fillColor=#fad9d5;strokeColor=#ae4132;shadow=1;" parent="1" vertex="1">
          <mxGeometry x="460" y="580" width="150" height="150" as="geometry" />
        </mxCell>
        <mxCell id="vcqUUj8RtbL1T8IDj6Kx-13" value="Actor" style="shape=umlActor;verticalLabelPosition=bottom;verticalAlign=top;html=1;outlineConnect=0;noLabel=1;fillColor=#fad9d5;strokeColor=#ae4132;" parent="1" vertex="1">
          <mxGeometry x="410" y="630" width="30" height="60" as="geometry" />
        </mxCell>
        <mxCell id="oM6ZGW8Rz1AFaY1xYlf1-5" value="" style="endArrow=classic;html=1;rounded=0;entryX=0.5;entryY=0;entryDx=0;entryDy=0;exitX=0.404;exitY=0.027;exitDx=0;exitDy=0;exitPerimeter=0;" parent="1" source="fXu-zx2hqorw0dzWZYp2-78" target="fXu-zx2hqorw0dzWZYp2-77" edge="1">
          <mxGeometry relative="1" as="geometry">
            <mxPoint x="520" y="500" as="sourcePoint" />
            <mxPoint x="740" y="850" as="targetPoint" />
            <Array as="points">
              <mxPoint x="520" y="440" />
              <mxPoint x="860" y="440" />
            </Array>
          </mxGeometry>
        </mxCell>
        <mxCell id="oM6ZGW8Rz1AFaY1xYlf1-6" value="" style="shape=message;html=1;outlineConnect=0;" parent="oM6ZGW8Rz1AFaY1xYlf1-5" vertex="1">
          <mxGeometry width="20" height="14" relative="1" as="geometry">
            <mxPoint x="-10" y="-7" as="offset" />
          </mxGeometry>
        </mxCell>
        <mxCell id="oM6ZGW8Rz1AFaY1xYlf1-18" value="Tasks for Translation has been assigned to Head of Translators and moved to column &quot;&lt;b&gt;To Translate&quot;&lt;/b&gt;" style="rounded=0;whiteSpace=wrap;html=1;shadow=1;" parent="1" vertex="1">
          <mxGeometry x="1110" y="612" width="320" height="80" as="geometry" />
        </mxCell>
        <mxCell id="oM6ZGW8Rz1AFaY1xYlf1-25" value="&lt;i&gt;&lt;b&gt;PM assigned tasks&lt;/b&gt;&lt;/i&gt;" style="text;html=1;strokeColor=none;fillColor=none;align=center;verticalAlign=middle;whiteSpace=wrap;rounded=0;" parent="1" vertex="1">
          <mxGeometry x="670" y="400" width="190" height="30" as="geometry" />
        </mxCell>
        <mxCell id="H_6kP9zhAVCkslabjDEE-8" value="" style="endArrow=classic;html=1;rounded=0;" parent="1" edge="1">
          <mxGeometry width="50" height="50" relative="1" as="geometry">
            <mxPoint x="990" y="645" as="sourcePoint" />
            <mxPoint x="1110" y="645" as="targetPoint" />
          </mxGeometry>
        </mxCell>
        <mxCell id="H_6kP9zhAVCkslabjDEE-10" value="Actor" style="shape=umlActor;verticalLabelPosition=bottom;verticalAlign=top;html=1;outlineConnect=0;noLabel=1;fillColor=#fad9d5;strokeColor=#ae4132;" parent="1" vertex="1">
          <mxGeometry x="1255" y="730" width="30" height="60" as="geometry" />
        </mxCell>
        <mxCell id="H_6kP9zhAVCkslabjDEE-14" value="&lt;b&gt;Head of Translators&lt;/b&gt;" style="text;html=1;strokeColor=none;fillColor=none;align=center;verticalAlign=middle;whiteSpace=wrap;rounded=0;" parent="1" vertex="1">
          <mxGeometry x="1240" y="802" width="60" height="30" as="geometry" />
        </mxCell>
        <mxCell id="3x5jrfoifH_RkQTQNntV-7" value="" style="endArrow=none;dashed=1;html=1;dashPattern=1 3;strokeWidth=2;rounded=0;exitX=0.5;exitY=0;exitDx=0;exitDy=0;exitPerimeter=0;entryX=0.5;entryY=1;entryDx=0;entryDy=0;" parent="1" source="H_6kP9zhAVCkslabjDEE-10" target="oM6ZGW8Rz1AFaY1xYlf1-18" edge="1">
          <mxGeometry width="50" height="50" relative="1" as="geometry">
            <mxPoint x="920" y="680" as="sourcePoint" />
            <mxPoint x="970" y="630" as="targetPoint" />
          </mxGeometry>
        </mxCell>
        <mxCell id="3x5jrfoifH_RkQTQNntV-8" value="Finished tasks will be assigned for PM and then PM assigned tasks to developers in column&lt;b&gt; &quot;To integrate&quot;. &lt;/b&gt;All tasks will be linked by dependencies and epic &lt;b&gt;&quot;Translation&quot;&lt;/b&gt;" style="rounded=0;whiteSpace=wrap;html=1;shadow=1;" parent="1" vertex="1">
          <mxGeometry x="1560" y="612" width="350" height="80" as="geometry" />
        </mxCell>
        <mxCell id="3x5jrfoifH_RkQTQNntV-9" value="Actor" style="shape=umlActor;verticalLabelPosition=bottom;verticalAlign=top;html=1;outlineConnect=0;noLabel=1;fillColor=#fad9d5;strokeColor=#ae4132;" parent="1" vertex="1">
          <mxGeometry x="1980" y="800" width="30" height="60" as="geometry" />
        </mxCell>
        <mxCell id="3x5jrfoifH_RkQTQNntV-10" value="&lt;b&gt;Project Manager&lt;/b&gt;" style="text;html=1;strokeColor=none;fillColor=none;align=center;verticalAlign=middle;whiteSpace=wrap;rounded=0;" parent="1" vertex="1">
          <mxGeometry x="1967" y="876" width="60" height="30" as="geometry" />
        </mxCell>
        <mxCell id="3x5jrfoifH_RkQTQNntV-11" value="" style="endArrow=none;dashed=1;html=1;dashPattern=1 3;strokeWidth=2;rounded=0;exitX=0.5;exitY=0.5;exitDx=0;exitDy=0;exitPerimeter=0;" parent="1" source="3x5jrfoifH_RkQTQNntV-9" edge="1">
          <mxGeometry width="50" height="50" relative="1" as="geometry">
            <mxPoint x="1440" y="710" as="sourcePoint" />
            <mxPoint x="1725" y="690" as="targetPoint" />
            <Array as="points">
              <mxPoint x="1725" y="830" />
            </Array>
          </mxGeometry>
        </mxCell>
        <mxCell id="3x5jrfoifH_RkQTQNntV-12" value="" style="endArrow=classic;html=1;rounded=0;exitX=1;exitY=0.5;exitDx=0;exitDy=0;entryX=0;entryY=0.5;entryDx=0;entryDy=0;" parent="1" source="oM6ZGW8Rz1AFaY1xYlf1-18" target="3x5jrfoifH_RkQTQNntV-8" edge="1">
          <mxGeometry width="50" height="50" relative="1" as="geometry">
            <mxPoint x="1440" y="710" as="sourcePoint" />
            <mxPoint x="1490" y="660" as="targetPoint" />
          </mxGeometry>
        </mxCell>
        <mxCell id="3x5jrfoifH_RkQTQNntV-13" value="" style="endArrow=classic;html=1;rounded=0;exitX=1;exitY=0.5;exitDx=0;exitDy=0;" parent="1" source="3x5jrfoifH_RkQTQNntV-8" edge="1">
          <mxGeometry width="50" height="50" relative="1" as="geometry">
            <mxPoint x="1960" y="710" as="sourcePoint" />
            <mxPoint x="2040" y="652" as="targetPoint" />
          </mxGeometry>
        </mxCell>
        <mxCell id="3x5jrfoifH_RkQTQNntV-14" value="Implemented tasks by developers will be moved to colum &quot;&lt;b&gt;Done&lt;/b&gt;&quot;" style="rounded=0;whiteSpace=wrap;html=1;shadow=1;" parent="1" vertex="1">
          <mxGeometry x="2040" y="611" width="350" height="80" as="geometry" />
        </mxCell>
        <mxCell id="3x5jrfoifH_RkQTQNntV-17" value="" style="endArrow=none;dashed=1;html=1;dashPattern=1 3;strokeWidth=2;rounded=0;exitX=0.5;exitY=0.5;exitDx=0;exitDy=0;exitPerimeter=0;entryX=0.671;entryY=1.033;entryDx=0;entryDy=0;entryPerimeter=0;" parent="1" source="3x5jrfoifH_RkQTQNntV-9" target="3x5jrfoifH_RkQTQNntV-14" edge="1">
          <mxGeometry width="50" height="50" relative="1" as="geometry">
            <mxPoint x="1800" y="740" as="sourcePoint" />
            <mxPoint x="1850" y="690" as="targetPoint" />
            <Array as="points">
              <mxPoint x="2275" y="830" />
            </Array>
          </mxGeometry>
        </mxCell>
      </root>
    </mxGraphModel>
  </diagram>
</mxfile>
